<svg width="198" height="252" viewBox="0 0 198 252" fill="none" xmlns="http://www.w3.org/2000/svg">
<path fill-rule="evenodd" clip-rule="evenodd" d="M55.0994 0C24.9768 0 0 23.5353 0 53.2003C0 93.0104 24.7284 125.342 48.0862 147.116C59.8874 158.118 71.6577 166.726 80.4671 172.583C84.879 175.516 88.5669 177.771 91.1698 179.303C92.4717 180.069 93.5036 180.655 94.2204 181.055C94.5788 181.255 94.8587 181.408 95.0542 181.515C95.1056 181.542 95.1512 181.567 95.1909 181.589C95.2267 181.608 95.2576 181.625 95.2837 181.639L95.3498 181.674L95.3704 181.685L95.3776 181.689C95.3803 181.69 95.3827 181.692 98.8607 175.143L95.3827 181.692C97.5825 182.86 100.219 182.86 102.419 181.692L98.9219 175.108C102.419 181.692 102.421 181.69 102.424 181.689L102.431 181.685L102.452 181.674L102.518 181.639C102.573 181.609 102.649 181.568 102.747 181.515C102.943 181.408 103.222 181.255 103.581 181.055C104.298 180.655 105.33 180.069 106.632 179.303C109.234 177.771 112.922 175.516 117.334 172.583C126.144 166.726 137.914 158.118 149.715 147.116C173.073 125.342 197.801 93.0104 197.801 53.2003C197.801 23.5353 172.835 0 142.692 0C124.92 0 109.006 8.14479 98.9006 20.9017C88.7943 8.14441 72.879 0 55.0994 0Z" fill="#56BEC0"/>
<path fill-rule="evenodd" clip-rule="evenodd" d="M87.9375 194.46C77.5718 194.46 68.6328 202.607 68.6328 213.294C68.6328 225.534 76.1779 234.954 82.3523 240.71C85.5619 243.702 88.7405 246.025 91.1061 247.597C92.2962 248.388 93.2992 249.002 94.0226 249.428C94.3848 249.641 94.6784 249.808 94.8918 249.927C94.9985 249.986 95.0853 250.034 95.1509 250.07L95.233 250.114L95.2618 250.13L95.273 250.136L95.2779 250.138C95.2801 250.139 95.2822 250.14 98.7899 243.536L95.2822 250.14C97.482 251.309 100.118 251.309 102.318 250.14L98.8056 243.527C102.318 250.14 102.32 250.139 102.322 250.138L102.327 250.136L102.339 250.13L102.367 250.114L102.449 250.07C102.515 250.034 102.602 249.986 102.709 249.927C102.922 249.808 103.215 249.641 103.578 249.428C104.301 249.002 105.304 248.388 106.494 247.597C108.86 246.025 112.038 243.702 115.248 240.71C121.422 234.954 128.967 225.534 128.967 213.294C128.967 202.607 120.031 194.46 109.66 194.46C105.669 194.46 101.917 195.65 98.8 197.72C95.6825 195.65 91.93 194.46 87.9375 194.46Z" fill="#56BEC0"/>
<circle cx="98.5709" cy="91.5313" r="17.5982" fill="white"/>
</svg>
