<svg width="230" height="79" viewBox="0 0 230 79" fill="none" xmlns="http://www.w3.org/2000/svg">
<path d="M26.9932 32.6777C26.9932 29.748 26.8613 27.7412 26.5977 26.6572C26.334 25.5439 25.8506 24.9873 25.1475 24.9873C24.708 24.9873 24.3125 25.1338 23.9609 25.4268C24.0195 25.9541 24.1074 26.6572 24.2246 27.5361C24.3418 28.415 24.4004 30.29 24.4004 33.1611V36.0176C24.4004 38.0098 24.3564 39.46 24.2686 40.3682C24.1807 41.2764 24.1074 42.0527 24.0488 42.6973C24.0195 43.0488 23.9902 43.4004 23.9609 43.752C24.3125 44.0449 24.708 44.1914 25.1475 44.1914C25.8506 44.1914 26.334 43.6494 26.5977 42.5654C26.8613 41.4521 26.9932 39.4307 26.9932 36.501V32.6777ZM10.6016 63.0439C7.34961 63.0439 4.83008 62.1797 3.04297 60.4512C1.28516 58.7227 0.40625 56.1152 0.40625 52.6289V13.0781C0.40625 10.8516 2.63281 8.97656 7.08594 7.45312C11.5684 5.90039 16.5635 5.12402 22.0713 5.12402C31.7686 5.12402 39.3418 7.46777 44.791 12.1553C50.6504 17.1943 53.5801 24.709 53.5801 34.6992C53.5801 43.6934 50.7383 50.666 45.0547 55.6172C39.4004 60.5684 31.6221 63.0439 21.7197 63.0439H10.6016ZM99.9424 41.2471C99.9424 43.3564 100.177 45.0557 100.646 46.3447C101.114 47.6338 101.935 48.6445 103.106 49.377C103.136 49.5234 103.15 49.8018 103.15 50.2119V51.0029C103.15 55.1631 101.891 58.4004 99.3711 60.7148C97.1445 62.7656 94.3906 63.791 91.1094 63.791C88.8828 63.791 86.8467 63.2637 85.001 62.209C83.1553 61.1543 81.8369 59.6309 81.0459 57.6387C80.0498 57.6387 79.5518 58.1221 79.5518 59.0889C79.5518 59.9092 80.0645 60.832 81.0898 61.8574C79.1855 63.1465 76.3145 63.791 72.4766 63.791C67.0566 63.791 62.7207 62.3262 59.4688 59.3965C56.2461 56.4375 54.6348 52.3213 54.6348 47.0479C54.6348 41.7451 56.3486 37.6436 59.7764 34.7432C62.9111 32.1357 66.9688 30.832 71.9492 30.832C73.6484 30.832 75.2891 30.9492 76.8711 31.1836C77.9258 31.3887 78.4971 31.5059 78.585 31.5352C78.6729 31.2422 78.7168 30.9932 78.7168 30.7881C78.7168 30.0264 78.0723 29.5137 76.7832 29.25C75.4941 28.9863 73.8096 28.8545 71.7295 28.8545C67.3057 28.8545 63.5264 29.748 60.3916 31.5352C58.9561 29.1035 58.2383 26.0273 58.2383 22.3066C58.2383 20.1973 58.502 18.6299 59.0293 17.6045C61.1387 16.6377 63.8193 15.7881 67.0713 15.0557C70.3232 14.2939 73.751 13.9131 77.3545 13.9131C84.7959 13.9131 90.4209 15.5391 94.2295 18.791C98.0381 22.043 99.9424 26.6572 99.9424 32.6338V41.2471ZM77.1348 43.4004C75.9043 43.4004 75.2891 43.957 75.2891 45.0703C75.2891 46.125 76.0068 46.6523 77.4424 46.6523C78.4385 46.6523 79.1709 46.418 79.6396 45.9492C80.1084 45.4512 80.3428 44.6016 80.3428 43.4004C80.3428 43.4004 79.2734 43.4004 77.1348 43.4004ZM128.111 39.2695V45.1582C128.316 45.3633 128.653 45.4658 129.122 45.4658C129.591 45.4658 129.928 45.3047 130.133 44.9824C130.338 44.6602 130.44 44.1035 130.44 43.3125V38.8301C130.44 36.0176 130.323 34.1572 130.089 33.249C129.854 32.3115 129.415 31.8428 128.771 31.8428C128.36 31.8428 128.009 31.9893 127.716 32.2822C127.979 35.1826 128.111 37.5117 128.111 39.2695ZM114.093 20.3291C114.093 21.208 114.605 21.6475 115.631 21.6475C117.389 18.8936 119.454 16.8574 121.827 15.5391C124.2 14.1914 127.057 13.5176 130.396 13.5176C133.736 13.5176 136.783 14.0449 139.537 15.0996C143.316 16.5938 146.305 18.9961 148.502 22.3066C151.256 26.4961 152.633 31.9893 152.633 38.7861C152.633 46.4326 150.582 52.3799 146.48 56.6279C142.408 60.8467 136.754 62.9561 129.518 62.9561C125.475 62.9561 122.325 62.458 120.069 61.4619C119.864 61.5791 119.762 61.8281 119.762 62.209C119.762 63.0879 120.436 63.7178 121.783 64.0986C123.16 64.4795 125.519 64.7578 128.858 64.9336V76.623C125.841 77.9707 122.53 78.6445 118.927 78.6445C114.679 78.6445 111.471 77.8682 109.303 76.3154C106.842 74.6455 105.611 72.082 105.611 68.625V33.249C103.883 30.8174 103.019 27.7998 103.019 24.1963C103.019 22.7314 103.253 21.1348 103.722 19.4062C104.19 17.6777 104.82 16.1982 105.611 14.9678H111.852C114.4 14.9678 116.349 15.3193 117.696 16.0225C115.294 17.8096 114.093 19.2451 114.093 20.3291ZM177.506 9.95801V40.8516C177.506 45.2168 178.561 48.0586 180.67 49.377C180.699 49.5234 180.714 49.8018 180.714 50.2119V51.0029C180.714 55.1924 179.645 58.3711 177.506 60.5391C175.396 62.707 172.394 63.791 168.497 63.791C164.601 63.791 161.51 62.707 159.225 60.5391C156.5 57.9609 155.138 54.0645 155.138 48.8496V3.19043C158.214 1.31543 161.729 0.37793 165.685 0.37793C169.669 0.37793 172.628 1.22754 174.562 2.92676C176.524 4.59668 177.506 6.94043 177.506 9.95801ZM207.696 64.3623C199.581 64.3623 193.18 62.1064 188.492 57.5947C183.688 53.0537 181.285 46.8428 181.285 38.9619C181.285 31.0518 183.761 24.7822 188.712 20.1533C193.282 15.8467 199.068 13.6934 206.07 13.6934C213.072 13.6934 218.683 15.627 222.901 19.4941C227.149 23.332 229.273 28.0635 229.273 33.6885C229.273 38.6982 227.53 42.4775 224.044 45.0264C220.821 47.4287 216.427 48.6299 210.86 48.6299C206.7 48.6299 203.185 47.7656 200.313 46.0371C200.079 46.2129 199.962 46.5352 199.962 47.0039C199.962 47.8828 201.119 48.6885 203.434 49.4209C205.748 50.2119 208.37 50.6074 211.3 50.6074C214.259 50.6074 216.939 50.2412 219.342 49.5088C221.773 48.7471 223.722 47.8535 225.187 46.8281C225.89 47.4434 226.446 48.5859 226.856 50.2559C227.296 51.8965 227.516 53.4053 227.516 54.7822C227.516 56.1299 227.384 57.3311 227.12 58.3857C224.835 60.3193 222.491 61.6963 220.089 62.5166C216.69 63.7471 212.56 64.3623 207.696 64.3623ZM207.125 34.6113C208.59 34.6113 209.322 34.0547 209.322 32.9414C209.322 31.8867 208.546 31.3594 206.993 31.3594C205.44 31.3594 204.547 32.1943 204.312 33.8643C205.133 34.3623 206.07 34.6113 207.125 34.6113Z" fill="#56BEC0"/>
</svg>
